<svg width="16" height="16" viewBox="0 0 16 16" fill="none" xmlns="http://www.w3.org/2000/svg">
<path d="M11.9881 9.67163C12.0031 9.92113 12.2637 10.0894 12.4754 9.95659C13.7908 9.1313 14.6654 7.66811 14.6654 6.00065C14.6654 3.42332 12.576 1.33398 9.99869 1.33398C8.33123 1.33398 6.86803 2.20852 6.04275 3.52394C5.9099 3.73568 6.07821 3.99619 6.32772 4.01119C9.3116 4.19058 11.8087 6.69031 11.9881 9.67163Z" fill="#3772FF"/>
<path d="M10.6654 10.0007C10.6654 12.578 8.57603 14.6673 5.9987 14.6673C3.42137 14.6673 1.33203 12.578 1.33203 10.0007C1.33203 7.42332 3.42137 5.33398 5.9987 5.33398C8.57603 5.33398 10.6654 7.42332 10.6654 10.0007Z" fill="#3772FF"/>
</svg>
